<?xml version='1.0' encoding='UTF-8'?>
<svg x="0px" y="0px" viewBox="0 0 32 32" version="1.1" xmlns="http://www.w3.org/2000/svg" xmlns:xlink="http://www.w3.org/1999/xlink" xml:space="preserve" id="Layer_1" style="enable-background:new 0 0 32 32">
  <style type="text/css">
	.Green{fill:#039C23;}
	.Black{fill:#727272;}
	.Red{fill:#D11C1C;}
	.Yellow{fill:#FFB115;}
	.Blue{fill:#1177D7;}
	.White{fill:#FFFFFF;}
	.st0{opacity:0.5;}
	.st1{opacity:0.75;}
</style>
  <g id="ItemTypeStandard">
    <circle cx="10" cy="10" r="2" class="Green" />
    <path d="M10,4c-3.3,0-6,2.7-6,6s2.7,6,6,6s6-2.7,6-6S13.3,4,10,4z M10,14c-2.2,0-4-1.8-4-4c0-2.2,1.8-4,4-4   s4,1.8,4,4C14,12.2,12.2,14,10,14z M10,18c-3.3,0-6,2.7-6,6s2.7,6,6,6s6-2.7,6-6S13.3,18,10,18z M10,28c-2.2,0-4-1.8-4-4   c0-2.2,1.8-4,4-4s4,1.8,4,4C14,26.2,12.2,28,10,28z M28,12H18V8h10V12z M28,26H18v-4h10V26z" class="Black" />
  </g>
</svg>