<?xml version='1.0' encoding='UTF-8'?>
<svg x="0px" y="0px" viewBox="0 0 32 32" version="1.1" xmlns="http://www.w3.org/2000/svg" xmlns:xlink="http://www.w3.org/1999/xlink" xml:space="preserve" id="Text" style="enable-background:new 0 0 32 32">
  <style type="text/css">
	.Yellow{fill:#FFB115;}
</style>
  <path d="M16.5,20h-3l1.5-5h0L16.5,20z M4,5c0,0.6,0.4,1,1,1h23v23c0,0.6-0.4,1-1,1H5c-1.7,0-3-1.3-3-3V5  c0-1.7,1.3-3,3-3h22c0.6,0,1,0.4,1,1v1H5C4.4,4,4,4.4,4,5z M10,24h2.3l0.6-2l4.2,0l0.6,2H20l-3.8-12h-2.3L10,24z" class="Yellow" />
</svg>